<svg width="184" height="184" viewBox="0 0 184 184" fill="none" xmlns="http://www.w3.org/2000/svg"><path d="M39.54 113.525a60.74 60.74 0 01-11.537-35.706C28.003 44.203 55.206 17 88.723 17c33.518 0 60.72 27.252 60.72 60.82a60.737 60.737 0 01-11.537 35.705l-29.191-47.442-2.835 4.774 2.835 13.228-20.041-34.363L76.29 70.708l2.884 13.377-10.493-18.002-29.141 47.442z" fill="#4680FF"/><path d="M20.146 167.383h6.067v-28.595h-5.918v18.649L7.813 138.788H1v28.595h5.868V147.64l13.278 19.743zm9.548-9.698c0-5.818 4.824-10.244 10.792-10.244 5.917 0 10.642 4.327 10.642 10.095 0 5.868-4.824 10.245-10.742 10.245-5.968.049-10.692-4.227-10.692-10.096zm5.868-.099c0 2.934 2.188 5.023 4.874 5.023 2.685 0 4.824-2.039 4.824-5.023 0-2.934-2.188-4.973-4.874-4.973-2.685 0-4.824 2.039-4.824 4.973zm30.634-9.697a7.65 7.65 0 00-1.542-.199c-2.039 0-4.028.845-5.072 3.083h-.05v-2.835h-5.47v19.494h5.62v-8.553c0-3.63 1.889-5.52 4.674-5.52.248 0 1.044 0 1.84.149v-5.619zm16.112 19.494v-2.487h-.05c-1.84 2.686-4.774 2.835-6.116 2.835-5.72 0-9.35-4.874-9.35-10.145 0-4.923 3.78-10.095 9.4-10.095 1.143 0 3.878.199 5.868 2.586h.05v-11.339h5.768v28.595h-5.57v.05zm0-9.797c0-2.934-2.188-4.923-4.873-4.923-2.686 0-4.874 1.989-4.874 4.923s2.188 5.023 4.874 5.023c2.685 0 4.873-2.039 4.873-5.023zm18.052 9.797h6.863l10.443-28.595h-6.316l-7.509 21.732-7.46-21.732h-6.414l10.393 28.595zm41.027-19.445c0 6.316-4.476 9.35-10.493 9.35h-4.525v10.095h-5.968v-28.595h10.692c5.769 0 10.294 3.083 10.294 9.15zm-6.017.15c0-2.785-2.337-3.73-4.824-3.73h-4.227v7.41h4.277c2.387 0 4.774-.995 4.774-3.68zm28.396 19.295h6.067v-28.595h-5.869v18.649l-12.482-18.649h-6.813v28.595h5.868V147.64l13.229 19.743zm9.398-23.323a5.275 5.275 0 015.272-5.272 5.274 5.274 0 015.271 5.272 5.242 5.242 0 01-5.271 5.271 5.274 5.274 0 01-5.272-5.271zm.995 0c0 2.387 1.89 4.326 4.277 4.326 2.337 0 4.276-1.939 4.276-4.326 0-2.387-1.939-4.327-4.276-4.327-2.387 0-4.277 1.94-4.277 4.327zm3.481 2.983h-1.243v-6.017h2.387c1.193 0 2.138.597 2.138 1.89 0 .895-.497 1.442-1.144 1.74l1.244 2.387h-1.343l-1.094-2.188h-.945v2.188zm1.044-4.823h-1.044v1.491h1.044c.448 0 .945-.198.945-.745 0-.597-.497-.746-.945-.746z" fill="#2C3038"/></svg>